<svg width="288" height="71" viewBox="0 0 288 71" fill="none" xmlns="http://www.w3.org/2000/svg">
<path d="M1 69.5H77.5" stroke="#1A1035" stroke-width="2" stroke-linecap="round"/>
<path d="M13.5 68.5V3C13.5 1.89543 14.3954 1 15.5 1H62C63.1046 1 64 1.89543 64 3V68.5" stroke="#1A1035" stroke-width="2"/>
<path d="M22.5 20.5V40.5C22.5 42.7091 24.2909 44.5 26.5 44.5H38.5M33.5 20.5H50.5C52.7091 20.5 54.5 22.2909 54.5 24.5V40.5C54.5 42.7091 52.7091 44.5 50.5 44.5H38.5M38.5 44.5V54.5M25.5 54.5H51.5" stroke="#D2D2D2" stroke-width="2"/>
<path d="M25.7979 24C25.57 24 25.4561 23.8779 25.4561 23.6338V17.3643C25.4561 17.1201 25.57 16.998 25.7979 16.998H26.54C26.7679 16.998 26.8818 17.1201 26.8818 17.3643V19.3076C26.8818 19.5029 26.8737 19.6982 26.8574 19.8936H26.8916L29.2646 17.2861C29.4404 17.0941 29.5902 16.998 29.7139 16.998H30.6953C31.0762 16.998 31.138 17.138 30.8809 17.418L28.6592 19.8496L31.0371 23.5801C31.2161 23.86 31.1543 24 30.8516 24H29.9385C29.7692 24 29.6227 23.904 29.499 23.7119L27.7021 20.8945L26.8818 21.8174V23.6338C26.8818 23.8779 26.7679 24 26.54 24H25.7979Z" fill="white"/>
<path d="M29.6992 33.2852C29.543 33.2031 29.4648 33.0957 29.4648 32.9629V32.4238C29.4648 32.291 29.543 32.1836 29.6992 32.1016L35.2129 29.166C35.4199 29.0566 35.5703 29.0879 35.6641 29.2598L35.8809 29.6758C35.9707 29.8477 35.9141 29.9883 35.7109 30.0977L30.8242 32.6875V32.6992L35.7109 35.2891C35.9141 35.3984 35.9707 35.5391 35.8809 35.7109L35.6641 36.127C35.5703 36.2988 35.4199 36.3301 35.2129 36.2207L29.6992 33.2852ZM41.2539 35.7109C41.1641 35.5391 41.2207 35.3984 41.4238 35.2891L46.3105 32.6992V32.6875L41.4238 30.0977C41.2207 29.9883 41.1641 29.8477 41.2539 29.6758L41.4707 29.2598C41.5645 29.0879 41.7148 29.0566 41.9219 29.166L47.4355 32.1016C47.5918 32.1836 47.6699 32.291 47.6699 32.4238V32.9629C47.6699 33.0957 47.5918 33.2031 47.4355 33.2852L41.9219 36.2207C41.7148 36.3301 41.5645 36.2988 41.4707 36.127L41.2539 35.7109Z" fill="#D7D6D6"/>
<path d="M29.6992 33.2852L29.9342 32.8438L29.9316 32.8425L29.6992 33.2852ZM29.6992 32.1016L29.9316 32.5443L29.9342 32.5429L29.6992 32.1016ZM35.2129 29.166L34.9793 28.7239L34.9779 28.7247L35.2129 29.166ZM35.6641 29.2598L36.1075 29.0287L36.103 29.0203L35.6641 29.2598ZM35.8809 29.6758L35.4375 29.9069L35.4377 29.9074L35.8809 29.6758ZM35.7109 30.0977L35.9451 30.5395L35.948 30.5379L35.7109 30.0977ZM30.8242 32.6875L30.5901 32.2457L30.3242 32.3866V32.6875H30.8242ZM30.8242 32.6992H30.3242V33.0001L30.5901 33.141L30.8242 32.6992ZM35.7109 35.2891L35.948 34.8488L35.9451 34.8473L35.7109 35.2891ZM35.8809 35.7109L35.4377 35.4793L35.4375 35.4799L35.8809 35.7109ZM35.6641 36.127L36.1031 36.3664L36.1075 36.358L35.6641 36.127ZM35.2129 36.2207L34.9779 36.6621L34.9793 36.6628L35.2129 36.2207ZM29.9316 32.8425C29.9001 32.8259 29.9094 32.8237 29.9278 32.849C29.9376 32.8624 29.9477 32.8807 29.955 32.9031C29.9623 32.9255 29.9648 32.9463 29.9648 32.9629H28.9648C28.9648 33.3431 29.2088 33.5924 29.4668 33.7279L29.9316 32.8425ZM29.9648 32.9629V32.4238H28.9648V32.9629H29.9648ZM29.9648 32.4238C29.9648 32.4404 29.9623 32.4612 29.955 32.4836C29.9477 32.506 29.9376 32.5243 29.9278 32.5377C29.9094 32.563 29.9001 32.5608 29.9316 32.5443L29.4668 31.6589C29.2088 31.7943 28.9648 32.0436 28.9648 32.4238H29.9648ZM29.9342 32.5429L35.4479 29.6074L34.9779 28.7247L29.4642 31.6602L29.9342 32.5429ZM35.4465 29.6081C35.4987 29.5805 35.4643 29.6146 35.3792 29.597C35.3339 29.5875 35.2936 29.5668 35.2633 29.5416C35.2494 29.53 35.2398 29.5193 35.2338 29.5117C35.2278 29.5042 35.2252 29.4994 35.2251 29.4992L36.103 29.0203C36.0067 28.8437 35.8392 28.6712 35.5827 28.6179C35.3473 28.569 35.1341 28.6421 34.9793 28.7239L35.4465 29.6081ZM35.2207 29.4908L35.4375 29.9069L36.3243 29.4447L36.1075 29.0287L35.2207 29.4908ZM35.4377 29.9074C35.4377 29.9073 35.4274 29.8878 35.4236 29.8517C35.4194 29.8124 35.4244 29.767 35.442 29.7234C35.475 29.6413 35.524 29.6305 35.4739 29.6574L35.948 30.5379C36.101 30.4555 36.2799 30.3196 36.3696 30.097C36.4671 29.8548 36.4163 29.6208 36.324 29.4442L35.4377 29.9074ZM35.4768 29.6559L30.5901 32.2457L31.0584 33.1293L35.9451 30.5394L35.4768 29.6559ZM30.3242 32.6875V32.6992H31.3242V32.6875H30.3242ZM30.5901 33.141L35.4768 35.7309L35.9451 34.8473L31.0584 32.2574L30.5901 33.141ZM35.4739 35.7293C35.524 35.7563 35.475 35.7454 35.442 35.6634C35.4244 35.6198 35.4194 35.5743 35.4236 35.5351C35.4274 35.4989 35.4377 35.4794 35.4377 35.4793L36.324 35.9426C36.4163 35.7659 36.4671 35.5319 36.3696 35.2898C36.2799 35.0671 36.101 34.9312 35.948 34.8488L35.4739 35.7293ZM35.4375 35.4799L35.2207 35.8959L36.1075 36.358L36.3243 35.942L35.4375 35.4799ZM35.2251 35.8875C35.2252 35.8873 35.2278 35.8826 35.2338 35.875C35.2398 35.8674 35.2494 35.8567 35.2633 35.8451C35.2936 35.82 35.3339 35.7992 35.3792 35.7898C35.4643 35.7721 35.4987 35.8062 35.4465 35.7786L34.9793 36.6628C35.1341 36.7446 35.3473 36.8178 35.5827 36.7688C35.8392 36.7155 36.0067 36.543 36.103 36.3664L35.2251 35.8875ZM35.4479 35.7794L29.9342 32.8438L29.4642 33.7265L34.9779 36.662L35.4479 35.7794ZM41.2539 35.7109L41.6973 35.4799L41.697 35.4793L41.2539 35.7109ZM41.4238 35.2891L41.1897 34.8473L41.1868 34.8488L41.4238 35.2891ZM46.3105 32.6992L46.5447 33.141L46.8105 33.0001V32.6992H46.3105ZM46.3105 32.6875H46.8105V32.3866L46.5447 32.2457L46.3105 32.6875ZM41.4238 30.0977L41.1868 30.5379L41.1897 30.5394L41.4238 30.0977ZM41.2539 29.6758L41.697 29.9074L41.6973 29.9069L41.2539 29.6758ZM41.4707 29.2598L41.0317 29.0203L41.0273 29.0287L41.4707 29.2598ZM41.9219 29.166L42.1569 28.7247L42.1554 28.7239L41.9219 29.166ZM47.4355 32.1016L47.2006 32.5429L47.2031 32.5443L47.4355 32.1016ZM47.4355 33.2852L47.2031 32.8424L47.2006 32.8438L47.4355 33.2852ZM41.9219 36.2207L42.1554 36.6628L42.1569 36.662L41.9219 36.2207ZM41.4707 36.127L41.0272 36.3581L41.0318 36.3664L41.4707 36.127ZM41.697 35.4793C41.6971 35.4794 41.7073 35.4989 41.7112 35.5351C41.7154 35.5743 41.7104 35.6198 41.6928 35.6634C41.6597 35.7454 41.6108 35.7563 41.6609 35.7293L41.1868 34.8488C41.0337 34.9312 40.8549 35.0671 40.7652 35.2898C40.6677 35.5319 40.7184 35.7659 40.8108 35.9426L41.697 35.4793ZM41.658 35.7309L46.5447 33.141L46.0764 32.2574L41.1897 34.8473L41.658 35.7309ZM46.8105 32.6992V32.6875H45.8105V32.6992H46.8105ZM46.5447 32.2457L41.658 29.6559L41.1897 30.5394L46.0764 33.1293L46.5447 32.2457ZM41.6609 29.6574C41.6108 29.6305 41.6597 29.6413 41.6928 29.7234C41.7104 29.767 41.7154 29.8124 41.7112 29.8517C41.7073 29.8878 41.6971 29.9073 41.697 29.9074L40.8108 29.4442C40.7184 29.6208 40.6677 29.8548 40.7652 30.097C40.8549 30.3196 41.0337 30.4555 41.1868 30.5379L41.6609 29.6574ZM41.6973 29.9069L41.9141 29.4908L41.0273 29.0287L40.8105 29.4447L41.6973 29.9069ZM41.9097 29.4992C41.9095 29.4994 41.9069 29.5042 41.901 29.5117C41.895 29.5193 41.8854 29.53 41.8714 29.5416C41.8412 29.5668 41.8009 29.5875 41.7555 29.597C41.6705 29.6146 41.6361 29.5805 41.6883 29.6081L42.1554 28.7239C42.0006 28.6421 41.7875 28.569 41.5521 28.6179C41.2955 28.6712 41.1281 28.8437 41.0318 29.0203L41.9097 29.4992ZM41.6869 29.6074L47.2006 32.5429L47.6705 31.6602L42.1569 28.7247L41.6869 29.6074ZM47.2031 32.5443C47.2346 32.5608 47.2254 32.563 47.207 32.5377C47.1972 32.5243 47.1871 32.506 47.1798 32.4836C47.1725 32.4612 47.1699 32.4404 47.1699 32.4238H48.1699C48.1699 32.0436 47.926 31.7943 47.668 31.6589L47.2031 32.5443ZM47.1699 32.4238V32.9629H48.1699V32.4238H47.1699ZM47.1699 32.9629C47.1699 32.9463 47.1725 32.9255 47.1798 32.9031C47.1871 32.8807 47.1972 32.8624 47.207 32.849C47.2254 32.8237 47.2346 32.8259 47.2031 32.8425L47.668 33.7279C47.926 33.5924 48.1699 33.3431 48.1699 32.9629H47.1699ZM47.2006 32.8438L41.6869 35.7794L42.1569 36.662L47.6705 33.7265L47.2006 32.8438ZM41.6883 35.7786C41.6361 35.8062 41.6705 35.7721 41.7555 35.7898C41.8009 35.7992 41.8412 35.82 41.8714 35.8451C41.8854 35.8567 41.895 35.8674 41.901 35.875C41.9069 35.8826 41.9095 35.8873 41.9097 35.8875L41.0318 36.3664C41.1281 36.543 41.2955 36.7155 41.5521 36.7688C41.7875 36.8178 42.0006 36.7446 42.1554 36.6628L41.6883 35.7786ZM41.9141 35.8959L41.6973 35.4799L40.8105 35.942L41.0273 36.358L41.9141 35.8959Z" fill="#7E7E7E"/>
<path d="M109.284 42C108.698 42 108.507 41.7314 108.71 41.1943L114.691 25.4839C114.944 24.8247 115.326 24.4951 115.839 24.4951H117.548C118.061 24.4951 118.443 24.8247 118.695 25.4839L124.677 41.1943C124.88 41.7314 124.689 42 124.103 42H122.162C121.625 42 121.251 41.7192 121.039 41.1577L119.794 37.874H113.593L112.348 41.1577C112.136 41.7192 111.762 42 111.225 42H109.284ZM114.728 34.8467H118.659L117.157 30.9648C116.978 30.5091 116.868 30.1795 116.828 29.9761C116.795 29.7645 116.758 29.4552 116.718 29.0483H116.669C116.628 29.4552 116.588 29.7645 116.547 29.9761C116.514 30.1795 116.409 30.5091 116.229 30.9648L114.728 34.8467ZM127.704 42C127.134 42 126.85 41.6948 126.85 41.0845V25.4106C126.85 24.8003 127.134 24.4951 127.704 24.4951H131.244C131.716 24.4951 132.054 24.8206 132.257 25.4717L135.565 36.1772C135.712 36.6411 135.814 37.0236 135.871 37.3247C135.928 37.6177 135.976 37.9676 136.017 38.3745H136.09C136.131 37.9676 136.18 37.6177 136.237 37.3247C136.294 37.0236 136.396 36.6411 136.542 36.1772L139.85 25.4717C140.054 24.8206 140.391 24.4951 140.863 24.4951H144.403C144.973 24.4951 145.258 24.8003 145.258 25.4106V41.0845C145.258 41.6948 144.973 42 144.403 42H142.548C141.978 42 141.693 41.6948 141.693 41.0845V31.0015C141.693 30.5132 141.714 30.0249 141.754 29.5366H141.669L138.141 41.0112C137.938 41.6704 137.588 42 137.091 42H135.016C134.52 42 134.17 41.6704 133.966 41.0112L130.438 29.5366H130.353C130.394 30.0249 130.414 30.5132 130.414 31.0015V41.0845C130.414 41.6948 130.129 42 129.56 42H127.704ZM148.615 42C148.029 42 147.838 41.7314 148.041 41.1943L154.022 25.4839C154.275 24.8247 154.657 24.4951 155.17 24.4951H156.879C157.392 24.4951 157.774 24.8247 158.026 25.4839L164.008 41.1943C164.211 41.7314 164.02 42 163.434 42H161.493C160.956 42 160.582 41.7192 160.37 41.1577L159.125 37.874H152.924L151.679 41.1577C151.467 41.7192 151.093 42 150.556 42H148.615ZM154.059 34.8467H157.99L156.488 30.9648C156.309 30.5091 156.199 30.1795 156.159 29.9761C156.126 29.7645 156.09 29.4552 156.049 29.0483H156C155.959 29.4552 155.919 29.7645 155.878 29.9761C155.845 30.1795 155.74 30.5091 155.561 30.9648L154.059 34.8467ZM167.035 42C166.465 42 166.181 41.6948 166.181 41.0845V25.4106C166.181 24.8003 166.465 24.4951 167.035 24.4951H172.687C175.202 24.4951 177.037 24.8857 178.192 25.667C179.348 26.4401 179.926 27.7015 179.926 29.4512C179.926 30.7533 179.458 31.7909 178.522 32.564C177.586 33.3371 176.398 33.8498 174.958 34.1021V34.1265C175.739 34.4194 176.329 34.8263 176.728 35.3472C177.126 35.868 177.452 36.3237 177.704 36.7144L180.39 40.9502C180.837 41.6501 180.683 42 179.926 42H177.802C177.354 42 176.988 41.7599 176.703 41.2798L174.237 37.166C173.969 36.7266 173.476 36.2464 172.76 35.7256C172.052 35.1966 171.348 34.9321 170.648 34.9321H169.745V41.0845C169.745 41.6948 169.46 42 168.891 42H167.035ZM169.745 31.9048H171.93C173.558 31.9048 174.713 31.7217 175.397 31.3555C176.089 30.9811 176.435 30.3911 176.435 29.5854C176.435 28.7065 176.101 28.1369 175.434 27.8765C174.774 27.6079 173.802 27.4736 172.516 27.4736H169.745V31.9048ZM208.344 33.2476C208.344 30.4399 209.068 28.2101 210.517 26.5581C211.965 24.9061 214.032 24.0801 216.718 24.0801C219.403 24.0801 221.47 24.9061 222.919 26.5581C224.368 28.2101 225.092 30.4399 225.092 33.2476C225.092 36.0552 224.368 38.285 222.919 39.937C221.47 41.589 219.403 42.415 216.718 42.415C214.032 42.415 211.965 41.589 210.517 39.937C209.068 38.285 208.344 36.0552 208.344 33.2476ZM212.152 33.2476C212.152 35.2821 212.514 36.8405 213.239 37.9229C213.971 38.9971 215.131 39.5342 216.718 39.5342C218.305 39.5342 219.46 38.9971 220.185 37.9229C220.917 36.8405 221.283 35.2821 221.283 33.2476C221.283 31.2131 220.917 29.6587 220.185 28.5845C219.46 27.5021 218.305 26.9609 216.718 26.9609C215.131 26.9609 213.971 27.5021 213.239 28.5845C212.514 29.6587 212.152 31.2131 212.152 33.2476ZM228.949 42C228.38 42 228.095 41.6948 228.095 41.0845V25.4106C228.095 24.8003 228.38 24.4951 228.949 24.4951H233.209C236.953 24.4951 239.484 25.252 240.802 26.7656C242.129 28.2793 242.792 30.4318 242.792 33.2231C242.792 36.0145 242.129 38.1751 240.802 39.7051C239.484 41.235 236.953 42 233.209 42H228.949ZM231.659 38.9727H232.978C235.5 38.9727 237.132 38.5047 237.873 37.5688C238.613 36.6248 238.983 35.1763 238.983 33.2231C238.983 31.27 238.613 29.8296 237.873 28.9019C237.132 27.966 235.5 27.498 232.978 27.498H231.659V38.9727ZM246.649 42C246.08 42 245.795 41.6948 245.795 41.0845V25.4106C245.795 24.8003 246.08 24.4951 246.649 24.4951H248.505C249.075 24.4951 249.359 24.8003 249.359 25.4106V41.0845C249.359 41.6948 249.075 42 248.505 42H246.649ZM254.12 42C253.55 42 253.266 41.6948 253.266 41.0845V25.4106C253.266 24.8003 253.55 24.4951 254.12 24.4951H255.927C256.627 24.4951 257.156 24.7799 257.514 25.3496L263.739 35.3472H263.825C263.784 34.8589 263.764 34.3706 263.764 33.8823V25.4106C263.764 24.8003 264.049 24.4951 264.618 24.4951H266.474C267.043 24.4951 267.328 24.8003 267.328 25.4106V41.0845C267.328 41.6948 267.043 42 266.474 42H264.789C264.089 42 263.56 41.7152 263.202 41.1455L256.854 30.9648H256.769C256.81 31.4531 256.83 31.9414 256.83 32.4297V41.0845C256.83 41.6948 256.545 42 255.976 42H254.12ZM270.331 33.2476C270.331 30.4399 271.063 28.2101 272.528 26.5581C273.993 24.9061 276.068 24.0801 278.754 24.0801C280.373 24.0801 281.643 24.2876 282.562 24.7026C283.49 25.1177 284.304 25.7606 285.004 26.6313C285.427 27.1603 285.415 27.5713 284.967 27.8643L283.576 28.7676C283.169 29.0361 282.733 28.9181 282.27 28.4136C281.887 27.9985 281.403 27.6527 280.817 27.376C280.231 27.0993 279.584 26.9609 278.876 26.9609C277.167 26.9609 275.95 27.5021 275.226 28.5845C274.502 29.6587 274.14 31.2131 274.14 33.2476C274.14 35.2821 274.502 36.8405 275.226 37.9229C275.95 38.9971 277.167 39.5342 278.876 39.5342C279.706 39.5342 280.422 39.4528 281.024 39.29C281.627 39.1191 282.196 38.814 282.733 38.3745V36.1895H280.084C279.474 36.1895 279.169 35.925 279.169 35.396V33.9556C279.169 33.4266 279.474 33.1621 280.084 33.1621H285.382C285.993 33.1621 286.298 33.4266 286.298 33.9556V40.1567C285.159 40.995 284.007 41.5809 282.843 41.9146C281.688 42.2482 280.325 42.415 278.754 42.415C276.109 42.415 274.042 41.589 272.553 39.937C271.072 38.285 270.331 36.0552 270.331 33.2476Z" fill="#CAC8C8"/>
<mask id="path-8-inside-1_2_43" fill="white">
<path d="M93.2744 42C92.682 42 92.3857 41.6826 92.3857 41.0479V24.7471C92.3857 24.1123 92.682 23.7949 93.2744 23.7949H95.2041C95.7965 23.7949 96.0928 24.1123 96.0928 24.7471V29.7998C96.0928 30.3076 96.0716 30.8154 96.0293 31.3232H96.1182L102.288 24.5439C102.745 24.0446 103.134 23.7949 103.456 23.7949H106.008C106.998 23.7949 107.159 24.1589 106.49 24.8867L100.714 31.209L106.896 40.9082C107.362 41.6361 107.201 42 106.414 42H104.04C103.6 42 103.219 41.7503 102.897 41.251L98.2256 33.9258L96.0928 36.3252V41.0479C96.0928 41.6826 95.7965 42 95.2041 42H93.2744Z"/>
</mask>
<path d="M93.2744 42C92.682 42 92.3857 41.6826 92.3857 41.0479V24.7471C92.3857 24.1123 92.682 23.7949 93.2744 23.7949H95.2041C95.7965 23.7949 96.0928 24.1123 96.0928 24.7471V29.7998C96.0928 30.3076 96.0716 30.8154 96.0293 31.3232H96.1182L102.288 24.5439C102.745 24.0446 103.134 23.7949 103.456 23.7949H106.008C106.998 23.7949 107.159 24.1589 106.49 24.8867L100.714 31.209L106.896 40.9082C107.362 41.6361 107.201 42 106.414 42H104.04C103.6 42 103.219 41.7503 102.897 41.251L98.2256 33.9258L96.0928 36.3252V41.0479C96.0928 41.6826 95.7965 42 95.2041 42H93.2744Z" fill="#303030"/>
<path d="M96.0293 31.3232L94.5345 31.1987L94.3991 32.8232H96.0293V31.3232ZM96.1182 31.3232V32.8232H96.7812L97.2275 32.3329L96.1182 31.3232ZM102.288 24.5439L101.182 23.5312L101.179 23.5343L102.288 24.5439ZM106.49 24.8867L105.386 23.872L105.383 23.8749L106.49 24.8867ZM100.714 31.209L99.6065 30.1972L98.8311 31.0459L99.449 32.0153L100.714 31.209ZM106.896 40.9082L105.632 41.7145L105.633 41.7164L106.896 40.9082ZM102.897 41.251L101.633 42.0576L101.636 42.0632L102.897 41.251ZM98.2256 33.9258L99.4903 33.1192L98.423 31.4458L97.1045 32.9292L98.2256 33.9258ZM96.0928 36.3252L94.9717 35.3286L94.5928 35.7549V36.3252H96.0928ZM93.2744 40.5C93.2369 40.5 93.4771 40.4948 93.7045 40.7385C93.9137 40.9626 93.8857 41.1588 93.8857 41.0479H90.8857C90.8857 41.5717 91.0059 42.2439 91.5113 42.7854C92.0349 43.3465 92.7194 43.5 93.2744 43.5V40.5ZM93.8857 41.0479V24.7471H90.8857V41.0479H93.8857ZM93.8857 24.7471C93.8857 24.6362 93.9137 24.8323 93.7045 25.0564C93.4771 25.3001 93.2369 25.2949 93.2744 25.2949V22.2949C92.7194 22.2949 92.0349 22.4485 91.5113 23.0095C91.0059 23.551 90.8857 24.2232 90.8857 24.7471H93.8857ZM93.2744 25.2949H95.2041V22.2949H93.2744V25.2949ZM95.2041 25.2949C95.2416 25.2949 95.0014 25.3001 94.774 25.0564C94.5648 24.8323 94.5928 24.6362 94.5928 24.7471H97.5928C97.5928 24.2232 97.4726 23.551 96.9672 23.0095C96.4436 22.4485 95.7591 22.2949 95.2041 22.2949V25.2949ZM94.5928 24.7471V29.7998H97.5928V24.7471H94.5928ZM94.5928 29.7998C94.5928 30.2659 94.5734 30.7322 94.5345 31.1987L97.5241 31.4478C97.5699 30.8987 97.5928 30.3493 97.5928 29.7998H94.5928ZM96.0293 32.8232H96.1182V29.8232H96.0293V32.8232ZM97.2275 32.3329L103.397 25.5536L101.179 23.5343L95.0088 30.3136L97.2275 32.3329ZM103.395 25.5567C103.48 25.4633 103.553 25.3923 103.612 25.3395C103.672 25.2863 103.713 25.2577 103.733 25.2448C103.753 25.2316 103.742 25.2421 103.699 25.257C103.655 25.2725 103.571 25.2949 103.456 25.2949V22.2949C102.908 22.2949 102.449 22.5042 102.113 22.7195C101.771 22.9387 101.461 23.2257 101.182 23.5312L103.395 25.5567ZM103.456 25.2949H106.008V22.2949H103.456V25.2949ZM106.008 25.2949C106.187 25.2949 106.209 25.3142 106.143 25.2934C106.089 25.2764 105.706 25.1436 105.499 24.6741C105.291 24.2034 105.451 23.8296 105.476 23.7765C105.506 23.7125 105.506 23.7406 105.386 23.872L107.595 25.9015C107.809 25.6689 108.04 25.3786 108.196 25.0417C108.348 24.7155 108.532 24.1143 108.243 23.4616C107.955 22.8102 107.389 22.5409 107.047 22.4329C106.694 22.3211 106.324 22.2949 106.008 22.2949V25.2949ZM105.383 23.8749L99.6065 30.1972L101.821 32.2208L107.598 25.8985L105.383 23.8749ZM99.449 32.0153L105.632 41.7145L108.161 40.1019L101.979 30.4027L99.449 32.0153ZM105.633 41.7164C105.706 41.8315 105.7 41.85 105.683 41.7891C105.667 41.7301 105.604 41.4588 105.753 41.1208C105.916 40.7529 106.203 40.5876 106.349 40.5314C106.47 40.485 106.517 40.5 106.414 40.5V43.5C106.705 43.5 107.067 43.4695 107.425 43.3321C107.808 43.185 108.254 42.8832 108.497 42.3333C108.727 41.8134 108.666 41.3146 108.573 40.9827C108.48 40.6488 108.319 40.3489 108.16 40.1L105.633 41.7164ZM106.414 40.5H104.04V43.5H106.414V40.5ZM104.04 40.5C104.074 40.5 104.115 40.5052 104.158 40.5181C104.2 40.5309 104.23 40.5472 104.247 40.5583C104.277 40.5779 104.239 40.5633 104.159 40.4388L101.636 42.0632C102.127 42.8248 102.919 43.5 104.04 43.5V40.5ZM104.162 40.4444L99.4903 33.1192L96.9609 34.7324L101.633 42.0576L104.162 40.4444ZM97.1045 32.9292L94.9717 35.3286L97.2139 37.3217L99.3467 34.9223L97.1045 32.9292ZM94.5928 36.3252V41.0479H97.5928V36.3252H94.5928ZM94.5928 41.0479C94.5928 41.1588 94.5648 40.9626 94.774 40.7385C95.0014 40.4948 95.2416 40.5 95.2041 40.5V43.5C95.7591 43.5 96.4436 43.3465 96.9672 42.7854C97.4726 42.2439 97.5928 41.5717 97.5928 41.0479H94.5928ZM95.2041 40.5H93.2744V43.5H95.2041V40.5Z" fill="#1A1035" mask="url(#path-8-inside-1_2_43)"/>
<path d="M193.274 42C192.682 42 192.386 41.6826 192.386 41.0479V24.7471C192.386 24.1123 192.682 23.7949 193.274 23.7949H195.204C195.797 23.7949 196.093 24.1123 196.093 24.7471V29.7998C196.093 30.3076 196.072 30.8154 196.029 31.3232H196.118L202.288 24.5439C202.745 24.0446 203.134 23.7949 203.456 23.7949H206.008C206.998 23.7949 207.159 24.1589 206.49 24.8867L200.714 31.209L206.896 40.9082C207.362 41.6361 207.201 42 206.414 42H204.04C203.6 42 203.219 41.7503 202.897 41.251L198.226 33.9258L196.093 36.3252V41.0479C196.093 41.6826 195.797 42 195.204 42H193.274Z" fill="#1A1035"/>
<path d="M196.029 31.3232L195.531 31.2817L195.486 31.8232H196.029V31.3232ZM196.118 31.3232V31.8232H196.339L196.488 31.6598L196.118 31.3232ZM202.288 24.5439L201.919 24.2064L201.918 24.2074L202.288 24.5439ZM206.49 24.8867L206.122 24.5485L206.121 24.5495L206.49 24.8867ZM200.714 31.209L200.345 30.8717L200.086 31.1546L200.292 31.4777L200.714 31.209ZM206.896 40.9082L206.475 41.177L206.475 41.1776L206.896 40.9082ZM202.897 41.251L202.476 41.5198L202.477 41.5217L202.897 41.251ZM198.226 33.9258L198.647 33.6569L198.291 33.0991L197.852 33.5936L198.226 33.9258ZM196.093 36.3252L195.719 35.993L195.593 36.1351V36.3252H196.093ZM193.274 41.5C193.064 41.5 192.996 41.4454 192.973 41.4208C192.944 41.3897 192.886 41.2964 192.886 41.0479H191.886C191.886 41.4341 191.975 41.8168 192.242 42.1031C192.516 42.3959 192.892 42.5 193.274 42.5V41.5ZM192.886 41.0479V24.7471H191.886V41.0479H192.886ZM192.886 24.7471C192.886 24.4985 192.944 24.4052 192.973 24.3741C192.996 24.3495 193.064 24.2949 193.274 24.2949V23.2949C192.892 23.2949 192.516 23.399 192.242 23.6918C191.975 23.9781 191.886 24.3609 191.886 24.7471H192.886ZM193.274 24.2949H195.204V23.2949H193.274V24.2949ZM195.204 24.2949C195.414 24.2949 195.482 24.3495 195.505 24.3741C195.534 24.4052 195.593 24.4985 195.593 24.7471H196.593C196.593 24.3609 196.503 23.9781 196.236 23.6918C195.963 23.399 195.587 23.2949 195.204 23.2949V24.2949ZM195.593 24.7471V29.7998H196.593V24.7471H195.593ZM195.593 29.7998C195.593 30.2937 195.572 30.7877 195.531 31.2817L196.528 31.3648C196.571 30.8432 196.593 30.3215 196.593 29.7998H195.593ZM196.029 31.8232H196.118V30.8232H196.029V31.8232ZM196.488 31.6598L202.658 24.8805L201.918 24.2074L195.748 30.9867L196.488 31.6598ZM202.657 24.8815C202.868 24.6505 203.047 24.4965 203.193 24.4031C203.34 24.3084 203.424 24.2949 203.456 24.2949V23.2949C203.166 23.2949 202.895 23.4063 202.653 23.5613C202.409 23.7176 202.165 23.9381 201.919 24.2064L202.657 24.8815ZM203.456 24.2949H206.008V23.2949H203.456V24.2949ZM206.008 24.2949C206.233 24.2949 206.37 24.3165 206.444 24.3399C206.522 24.3646 206.456 24.3658 206.414 24.27C206.371 24.1737 206.417 24.1249 206.383 24.1982C206.35 24.2679 206.274 24.3834 206.122 24.5485L206.858 25.225C207.041 25.0261 207.195 24.8232 207.29 24.6199C207.382 24.4202 207.451 24.144 207.328 23.8658C207.206 23.588 206.955 23.4527 206.746 23.3864C206.532 23.3188 206.278 23.2949 206.008 23.2949V24.2949ZM206.121 24.5495L200.345 30.8717L201.083 31.5462L206.859 25.224L206.121 24.5495ZM200.292 31.4777L206.475 41.177L207.318 40.6394L201.135 30.9402L200.292 31.4777ZM206.475 41.1776C206.577 41.3373 206.627 41.4496 206.647 41.5203C206.666 41.5916 206.645 41.577 206.668 41.525C206.695 41.463 206.738 41.4534 206.708 41.465C206.669 41.4798 206.58 41.5 206.414 41.5V42.5C206.642 42.5 206.868 42.4747 207.066 42.3985C207.273 42.3192 207.475 42.1731 207.582 41.9291C207.686 41.6952 207.666 41.4531 207.61 41.2515C207.553 41.0492 207.448 40.8431 207.318 40.6388L206.475 41.1776ZM206.414 41.5H204.04V42.5H206.414V41.5ZM204.04 41.5C203.827 41.5 203.583 41.3922 203.318 40.9802L202.477 41.5217C202.855 42.1085 203.373 42.5 204.04 42.5V41.5ZM203.319 40.9821L198.647 33.6569L197.804 34.1946L202.476 41.5198L203.319 40.9821ZM197.852 33.5936L195.719 35.993L196.466 36.6574L198.599 34.258L197.852 33.5936ZM195.593 36.3252V41.0479H196.593V36.3252H195.593ZM195.593 41.0479C195.593 41.2964 195.534 41.3897 195.505 41.4208C195.482 41.4454 195.414 41.5 195.204 41.5V42.5C195.587 42.5 195.963 42.3959 196.236 42.1031C196.503 41.8168 196.593 41.4341 196.593 41.0479H195.593ZM195.204 41.5H193.274V42.5H195.204V41.5Z" fill="#303030"/>
</svg>
